<svg width="50" height="50" viewBox="0 0 50 50" fill="none" xmlns="http://www.w3.org/2000/svg">
<path d="M27.4689 48.654H22.5311C22.209 48.6552 21.8973 48.5409 21.6524 48.3317C21.4075 48.1225 21.2458 47.8325 21.1966 47.5142L20.7156 44.4851C18.4199 43.9871 16.2323 43.0811 14.2568 41.8101L11.7662 43.6095C11.5061 43.7986 11.1868 43.8885 10.8662 43.8627C10.5456 43.8369 10.2448 43.6972 10.0183 43.4689L6.53582 39.9851C6.30807 39.7585 6.16882 39.4579 6.14317 39.1377C6.11752 38.8174 6.20717 38.4985 6.39595 38.2385L8.1946 35.748C6.92418 33.7725 6.0184 31.5851 5.52028 29.2899L2.49055 28.8088C2.1724 28.7595 1.88249 28.5977 1.67346 28.3528C1.46443 28.108 1.35015 27.7963 1.35136 27.4743V22.5365C1.35012 22.2145 1.46439 21.9027 1.6734 21.6577C1.88242 21.4127 2.17235 21.2508 2.49055 21.2013L5.52028 20.7209C6.01828 18.4256 6.92407 16.2382 8.1946 14.2628L6.39595 11.7723C6.20789 11.5121 6.11861 11.1934 6.14412 10.8734C6.16962 10.5533 6.30824 10.2528 6.53514 10.0257L10.0203 6.54121C10.2468 6.31321 10.5474 6.17378 10.8677 6.14813C11.1881 6.12248 11.507 6.2123 11.7669 6.40134L14.2568 8.19999C16.2319 6.9294 18.4191 6.0236 20.7142 5.52567L21.1953 2.49594C21.2445 2.17773 21.4062 1.88774 21.6511 1.67869C21.896 1.46963 22.2078 1.3554 22.5297 1.35675H27.4676C27.7896 1.3554 28.1013 1.46963 28.3462 1.67869C28.5911 1.88774 28.7529 2.17773 28.802 2.49594L29.2831 5.52567C31.5792 6.02329 33.7673 6.9291 35.7433 8.19999L38.2338 6.40134C38.4939 6.21215 38.8132 6.12231 39.1338 6.14809C39.4544 6.17387 39.7552 6.31356 39.9818 6.54188L43.4656 10.0257C43.6934 10.2521 43.8327 10.5526 43.8583 10.8728C43.884 11.193 43.7943 11.5118 43.6054 11.7716L41.8068 14.2628C43.0773 16.2382 43.9831 18.4256 44.4811 20.7209L47.5108 21.2013C47.8288 21.2511 48.1184 21.4131 48.3271 21.6581C48.5359 21.903 48.6499 22.2147 48.6487 22.5365V27.4743C48.6499 27.7963 48.5356 28.108 48.3266 28.3528C48.1175 28.5977 47.8276 28.7595 47.5095 28.8088L44.4797 29.2899C43.9816 31.5851 43.0758 33.7725 41.8054 35.748L43.6041 38.2385C43.7929 38.4983 43.8826 38.817 43.8571 39.1372C43.8316 39.4574 43.6925 39.7578 43.4649 39.9844L39.9797 43.4689C39.7534 43.6971 39.4528 43.8368 39.1325 43.8625C38.8121 43.8883 38.493 43.7985 38.2331 43.6095L35.7433 41.8101C33.7681 43.0809 31.581 43.987 29.2858 44.4851L28.8047 47.5142C28.7555 47.8327 28.5936 48.1229 28.3485 48.3321C28.1033 48.5413 27.7912 48.6556 27.4689 48.654ZM14.2399 40.3142C14.3747 40.3141 14.5065 40.3543 14.6183 40.4297C16.6762 41.8243 18.9965 42.7853 21.4378 43.254C21.5743 43.2801 21.6995 43.3476 21.7962 43.4474C21.8929 43.5471 21.9565 43.6743 21.9784 43.8115L22.5331 47.3027H27.471L28.0257 43.8115C28.0475 43.6743 28.1112 43.5471 28.2079 43.4474C28.3046 43.3476 28.4297 43.2801 28.5662 43.254C31.0076 42.7853 33.3279 41.8243 35.3858 40.4297C35.5006 40.3521 35.6364 40.3117 35.7749 40.3139C35.9134 40.316 36.0479 40.3607 36.1601 40.4419L39.0284 42.5135L42.5128 39.0297L40.4412 36.1615C40.3601 36.0494 40.3154 35.915 40.3131 35.7767C40.3108 35.6383 40.351 35.5026 40.4284 35.3878C41.8228 33.3299 42.7835 31.0095 43.252 28.5682C43.2781 28.4317 43.3456 28.3066 43.4454 28.2099C43.5451 28.1132 43.6723 28.0495 43.8095 28.0277L47.2973 27.4743V22.5365L43.8054 21.9824C43.6682 21.9606 43.541 21.897 43.4413 21.8002C43.3415 21.7035 43.274 21.5784 43.248 21.4419C42.7794 19.0006 41.8187 16.6803 40.4243 14.6223C40.347 14.5075 40.3068 14.3718 40.309 14.2334C40.3113 14.0951 40.3561 13.9608 40.4372 13.8486L42.5088 10.9804L39.0243 7.49999L36.1561 9.57161C36.0438 9.65277 35.9093 9.69746 35.7708 9.69963C35.6323 9.70181 35.4965 9.66136 35.3818 9.58377C33.3241 8.18821 31.0037 7.22632 28.5622 6.75675C28.4257 6.73069 28.3006 6.66318 28.2038 6.56343C28.1071 6.46368 28.0435 6.33653 28.0216 6.19932L27.4669 2.7081H22.5311L21.9764 6.19932C21.9545 6.33653 21.8909 6.46368 21.7942 6.56343C21.6974 6.66318 21.5723 6.73069 21.4358 6.75675C18.9945 7.2253 16.6742 8.18603 14.6162 9.5804C14.5015 9.65798 14.3657 9.69843 14.2271 9.69625C14.0886 9.69408 13.9542 9.64939 13.8419 9.56823L10.9757 7.49999L7.49122 10.9845L9.56285 13.8513C9.64395 13.9635 9.68867 14.0978 9.69097 14.2361C9.69327 14.3745 9.65302 14.5102 9.57568 14.625C8.18157 16.6823 7.22085 19.002 6.75204 21.4426C6.72597 21.579 6.65847 21.7042 6.55872 21.8009C6.45897 21.8976 6.33182 21.9612 6.1946 21.9831L2.70271 22.5365V27.4743L6.1946 28.0284C6.33182 28.0502 6.45897 28.1138 6.55872 28.2106C6.65847 28.3073 6.72597 28.4324 6.75204 28.5689C7.22058 31.0102 8.18131 33.3305 9.57568 35.3885C9.65302 35.5033 9.69327 35.639 9.69097 35.7773C9.68867 35.9157 9.64395 36.05 9.56285 36.1622L7.49122 39.0304L10.9757 42.5142L13.8439 40.4426C13.9593 40.3595 14.0977 40.3146 14.2399 40.3142Z" fill="black"/>
<path d="M23.6838 32.7602C23.5985 32.7601 23.5139 32.7441 23.4345 32.7129C23.297 32.6583 23.1813 32.5601 23.105 32.4334C23.0287 32.3067 22.9961 32.1585 23.0122 32.0115L23.5379 27.1669L20.1433 26.5818C20.0292 26.562 19.9222 26.5134 19.8324 26.4404C19.7426 26.3674 19.673 26.2726 19.6304 26.1651C19.5877 26.0575 19.5734 25.9408 19.5888 25.8261C19.6042 25.7115 19.6488 25.6027 19.7183 25.5102L25.7081 17.5243C25.7961 17.4046 25.9212 17.3172 26.0639 17.2757C26.2066 17.2341 26.359 17.2408 26.4975 17.2947C26.636 17.3486 26.7529 17.4466 26.8301 17.5736C26.9072 17.7006 26.9404 17.8496 26.9243 17.9973L26.4561 22.827L29.8581 23.4135C29.9722 23.4333 30.0794 23.4821 30.1692 23.5553C30.259 23.6284 30.3285 23.7234 30.3711 23.8311C30.4136 23.9389 30.4277 24.0557 30.4121 24.1705C30.3965 24.2853 30.3516 24.3941 30.2818 24.4865L24.223 32.4919C24.16 32.5753 24.0785 32.6429 23.9849 32.6894C23.8914 32.736 23.7883 32.7602 23.6838 32.7602ZM21.4622 25.4372L24.3919 25.946C24.5612 25.9752 24.713 26.0678 24.8164 26.205C24.9199 26.3422 24.9671 26.5137 24.9487 26.6845L24.6196 29.7297L28.5318 24.5568L25.6081 24.05C25.44 24.0211 25.289 23.9297 25.1855 23.7941C25.082 23.6585 25.0336 23.4887 25.05 23.3189L25.3466 20.2622L21.4622 25.4372Z" fill="black"/>
</svg>
