<svg width="50" height="50" viewBox="0 0 50 50" fill="none" xmlns="http://www.w3.org/2000/svg">
<path d="M36.3851 18.0622H13.6148C13.2065 18.0616 12.8151 17.8993 12.5263 17.6106C12.2376 17.322 12.075 16.9306 12.0743 16.5223V14.8574C12.0747 14.4489 12.2371 14.0572 12.5259 13.7683C12.8147 13.4793 13.2063 13.3168 13.6148 13.3162H36.3851C36.7936 13.3168 37.1853 13.4793 37.4741 13.7683C37.7629 14.0572 37.9253 14.4489 37.9257 14.8574V16.5223C37.9249 16.9306 37.7624 17.322 37.4736 17.6106C37.1848 17.8993 36.7934 18.0616 36.3851 18.0622ZM13.6148 14.6676C13.5646 14.6678 13.5165 14.6878 13.481 14.7234C13.4456 14.759 13.4256 14.8072 13.4256 14.8574V16.5223C13.4258 16.5724 13.4458 16.6203 13.4813 16.6556C13.5168 16.691 13.5648 16.7108 13.6148 16.7108H36.3851C36.4352 16.7108 36.4832 16.691 36.5186 16.6556C36.5541 16.6203 36.5741 16.5724 36.5743 16.5223V14.8574C36.5743 14.8072 36.5544 14.759 36.5189 14.7234C36.4835 14.6878 36.4353 14.6678 36.3851 14.6676H13.6148Z" fill="black"/>
<path d="M35.7007 14.6703H14.2994C14.2088 14.6703 14.1192 14.6522 14.0359 14.6169C13.9525 14.5817 13.877 14.53 13.814 14.465C13.751 14.4 13.7017 14.3231 13.669 14.2387C13.6363 14.1542 13.6209 14.0641 13.6237 13.9736C13.696 11.5687 14.5315 9.24921 16.0094 7.35065C17.4873 5.45209 19.531 4.07297 21.8446 3.41284C21.9299 3.38821 22.0192 3.38063 22.1074 3.39051C22.1956 3.40039 22.281 3.42755 22.3587 3.47044C22.4364 3.51332 22.5049 3.57109 22.5603 3.64045C22.6156 3.7098 22.6568 3.78939 22.6814 3.87466C22.7061 3.95993 22.7137 4.04922 22.7038 4.13742C22.6939 4.22562 22.6667 4.31101 22.6238 4.38872C22.581 4.46643 22.5232 4.53492 22.4538 4.5903C22.3845 4.64568 22.3049 4.68686 22.2196 4.71148C20.2956 5.26016 18.5806 6.374 17.297 7.90869C16.0134 9.44338 15.2202 11.3282 15.0203 13.3189H34.9797C34.7798 11.3282 33.9866 9.44338 32.703 7.90869C31.4194 6.374 29.7045 5.26016 27.7804 4.71148C27.6952 4.68686 27.6156 4.64568 27.5462 4.5903C27.4769 4.53492 27.4191 4.46643 27.3762 4.38872C27.3333 4.31101 27.3062 4.22562 27.2963 4.13742C27.2864 4.04922 27.294 3.95993 27.3186 3.87466C27.3432 3.78939 27.3844 3.7098 27.4398 3.64045C27.4952 3.57109 27.5637 3.51332 27.6414 3.47044C27.7191 3.42755 27.8045 3.40039 27.8927 3.39051C27.9809 3.38063 28.0702 3.38821 28.1554 3.41284C30.4689 4.07309 32.5124 5.45227 33.9902 7.35082C35.468 9.24937 36.3034 11.5688 36.3757 13.9736C36.3785 14.0641 36.3631 14.1542 36.3304 14.2387C36.2977 14.3231 36.2484 14.4 36.1854 14.465C36.1223 14.53 36.0469 14.5817 35.9635 14.6169C35.8801 14.6522 35.7905 14.6703 35.7 14.6703H35.7007Z" fill="black"/>
<path d="M27.2892 9.51689C27.2571 9.5172 27.225 9.51517 27.1932 9.51081C27.1053 9.49838 27.0208 9.46874 26.9443 9.4236C26.8679 9.37846 26.8011 9.3187 26.7477 9.24773C26.6944 9.17676 26.6556 9.09597 26.6335 9.00999C26.6114 8.92401 26.6064 8.83451 26.6189 8.74662L27.4399 2.95878C27.4444 2.92694 27.4421 2.8945 27.433 2.86365C27.4239 2.8328 27.4083 2.80426 27.3872 2.77997C27.3661 2.75568 27.3401 2.73621 27.3108 2.72288C27.2815 2.70955 27.2497 2.70267 27.2176 2.7027H22.7824C22.7502 2.70265 22.7183 2.70955 22.689 2.72292C22.6597 2.73629 22.6336 2.75583 22.6125 2.78019C22.5914 2.80456 22.5758 2.83318 22.5668 2.86412C22.5577 2.89505 22.5555 2.92757 22.5601 2.95946L23.3784 8.74662C23.3908 8.83451 23.3859 8.92399 23.3638 9.00996C23.3416 9.09593 23.3028 9.1767 23.2495 9.24766C23.1962 9.31862 23.1294 9.37838 23.0529 9.42354C22.9765 9.46869 22.8919 9.49834 22.8041 9.51081C22.7162 9.52328 22.6267 9.51831 22.5407 9.49619C22.4547 9.47408 22.374 9.43525 22.303 9.38192C22.232 9.32858 22.1723 9.2618 22.1271 9.18537C22.082 9.10894 22.0523 9.02437 22.0399 8.93648L21.2216 3.14865C21.19 2.92519 21.2067 2.69755 21.2706 2.48112C21.3346 2.26469 21.4442 2.0645 21.5922 1.89411C21.7402 1.72371 21.923 1.58708 22.1284 1.49344C22.3337 1.3998 22.5567 1.35135 22.7824 1.35135H27.2176C27.4432 1.35136 27.6662 1.3998 27.8715 1.4934C28.0767 1.58699 28.2595 1.72357 28.4075 1.89389C28.5555 2.0642 28.6651 2.2643 28.7291 2.48065C28.7931 2.697 28.8099 2.92457 28.7784 3.14797L27.9574 8.93648C27.9345 9.09744 27.8543 9.24473 27.7316 9.35134C27.6088 9.45795 27.4518 9.51673 27.2892 9.51689Z" fill="black"/>
<path d="M25 32.7547C23.6042 32.7554 22.2378 32.3533 21.0649 31.5966C17.9879 29.6088 14.3196 26.2372 14.3196 21.4615V17.3865C14.3196 17.2073 14.3908 17.0354 14.5175 16.9087C14.6442 16.782 14.8161 16.7108 14.9953 16.7108H35.0048C35.184 16.7108 35.3558 16.782 35.4825 16.9087C35.6092 17.0354 35.6804 17.2073 35.6804 17.3865V21.4628C35.6804 26.2372 32.0122 29.6088 28.9352 31.598C27.7621 32.3542 26.3957 32.7558 25 32.7547ZM15.671 18.0622V21.4628C15.671 25.629 19.0034 28.6561 21.7987 30.4615C22.7532 31.0764 23.8646 31.4035 25 31.4035C26.1355 31.4035 27.2469 31.0764 28.2014 30.4615C30.9966 28.6561 34.3291 25.629 34.3291 21.4628V18.0622H15.671Z" fill="black"/>
<path d="M43.3979 48.6487H6.60201C6.4228 48.6487 6.25094 48.5775 6.12423 48.4508C5.99752 48.324 5.92633 48.1522 5.92633 47.973C5.91607 44.2534 7.22421 40.6505 9.61851 37.804C12.0128 34.9574 15.3383 33.0514 19.0047 32.4243C19.102 32.4075 19.2018 32.4123 19.297 32.4382C19.3923 32.4641 19.4807 32.5106 19.5561 32.5743C20.2411 33.15 20.9619 33.6817 21.7142 34.1662C22.6936 34.7987 23.8347 35.1352 25.0007 35.1352C26.1666 35.1352 27.3077 34.7987 28.2871 34.1662C29.0389 33.6819 29.7593 33.1504 30.4439 32.575C30.5191 32.511 30.6075 32.4643 30.7028 32.4384C30.7981 32.4124 30.898 32.4079 30.9952 32.425C34.6604 33.0516 37.985 34.9564 40.3791 37.8013C42.7733 40.6462 44.0822 44.2473 44.0736 47.9656V47.973C44.0736 48.1522 44.0024 48.324 43.8757 48.4508C43.749 48.5775 43.5771 48.6487 43.3979 48.6487ZM7.29322 47.2973H42.7067C42.5652 44.0686 41.3399 40.9818 39.2285 38.5351C37.1171 36.0884 34.2428 34.4246 31.0696 33.8122C30.4149 34.3448 29.7314 34.841 29.0223 35.2986C27.8239 36.0716 26.428 36.4826 25.002 36.4826C23.576 36.4826 22.1802 36.0716 20.9817 35.2986C20.2721 34.8411 19.5882 34.3449 18.9331 33.8122C15.7594 34.424 12.8845 36.0876 10.7725 38.5344C8.66059 40.9811 7.43486 44.0682 7.29322 47.2973Z" fill="black"/>
</svg>
