<svg width="50" height="50" viewBox="0 0 50 50" fill="none" xmlns="http://www.w3.org/2000/svg">
<path d="M35.039 21.4609C34.9687 21.3484 34.8708 21.2556 34.7546 21.1913C34.6384 21.1271 34.5077 21.0935 34.375 21.0938H25.7812V9.37501C25.7802 9.20007 25.7205 9.03054 25.6116 8.89358C25.5028 8.75662 25.3511 8.66015 25.1809 8.61963C25.0108 8.57911 24.8319 8.59689 24.673 8.6701C24.5141 8.74332 24.3844 8.86775 24.3047 9.02345L14.9297 27.7734C14.8697 27.8924 14.8412 28.0247 14.8468 28.1577C14.8524 28.2908 14.8919 28.4202 14.9615 28.5337C15.0312 28.6472 15.1287 28.741 15.2448 28.8062C15.3609 28.8714 15.4918 28.9059 15.625 28.9063H24.2187V40.625C24.2193 40.8005 24.2789 40.9708 24.3881 41.1082C24.4972 41.2457 24.6495 41.3425 24.8203 41.3828C24.8789 41.3983 24.9393 41.4062 25 41.4063C25.1443 41.4058 25.2856 41.3654 25.4083 41.2896C25.531 41.2138 25.6304 41.1054 25.6953 40.9766L35.0703 22.2266C35.1308 22.1069 35.1596 21.9737 35.1542 21.8397C35.1487 21.7057 35.1091 21.5753 35.039 21.4609ZM25.7812 37.3125V28.125C25.7812 27.9178 25.6989 27.7191 25.5524 27.5726C25.4059 27.4261 25.2072 27.3438 25 27.3438H16.8906L24.2187 12.6875V21.875C24.2187 22.0822 24.301 22.2809 24.4476 22.4274C24.5941 22.5739 24.7928 22.6563 25 22.6563H33.1094L25.7812 37.3125Z" fill="black"/>
<path d="M44.0703 11.3906C44.6642 10.6429 44.9628 9.70311 44.9095 8.74972C44.8562 7.79634 44.4547 6.8957 43.7812 6.21877L41.5703 4.00783C41.4217 3.86671 41.2245 3.78803 41.0195 3.78803C40.8146 3.78803 40.6174 3.86671 40.4688 4.00783L39.9141 4.56252L37.7031 2.35158L36.6016 3.45314L38.8125 5.66408L37.7031 6.77345L35.4922 4.56252L34.3906 5.66408L36.6016 7.87502L36.0469 8.4297C35.9014 8.57608 35.8197 8.77409 35.8197 8.98048C35.8197 9.18688 35.9014 9.38489 36.0469 9.53126L38.2578 11.7422C38.8496 12.3389 39.6202 12.726 40.4523 12.8445C41.2843 12.9629 42.1323 12.8063 42.8672 12.3985C45.4862 16.0774 46.8877 20.484 46.875 25C46.8718 28.5897 45.986 32.1235 44.2957 35.2902C42.6054 38.457 40.1624 41.1596 37.1818 43.16C34.2012 45.1605 30.7745 46.3974 27.2034 46.7618C23.6323 47.1263 20.0264 46.6071 16.7031 45.25L16.1094 46.6953C19.6699 48.1499 23.5336 48.7066 27.3599 48.3165C31.1863 47.9263 34.8581 46.6012 38.0518 44.458C41.2455 42.3147 43.8632 39.4189 45.6743 36.0258C47.4854 32.6327 48.4343 28.8462 48.4375 25C48.4517 20.1168 46.9233 15.3538 44.0703 11.3906ZM42.6797 10.6406C42.2369 11.0763 41.6407 11.3204 41.0195 11.3204C40.3984 11.3204 39.8022 11.0763 39.3594 10.6406L37.7031 8.97658L41.0234 5.66408L42.6797 7.32033C43.1187 7.76132 43.3652 8.35823 43.3652 8.98048C43.3652 9.60273 43.1187 10.1997 42.6797 10.6406Z" fill="black"/>
<path d="M25 1.56251C18.7863 1.57016 12.8293 4.04192 8.43561 8.43565C4.04188 12.8294 1.57013 18.7864 1.56248 25C1.54827 29.8833 3.07669 34.6462 5.92966 38.6094C5.33583 39.3572 5.03721 40.2969 5.0905 41.2503C5.14379 42.2037 5.54526 43.1043 6.21873 43.7813L8.42966 45.9922C8.50087 46.0648 8.58601 46.1224 8.67999 46.1613C8.77396 46.2002 8.87483 46.2198 8.97654 46.2188C9.07942 46.2198 9.18147 46.2003 9.27671 46.1614C9.37196 46.1225 9.45849 46.065 9.53123 45.9922L10.0859 45.4375L12.2969 47.6485L13.3984 46.5469L11.1875 44.336L12.2969 43.2266L14.5078 45.4375L15.6094 44.336L13.3984 42.125L13.9531 41.5703C14.0986 41.424 14.1803 41.226 14.1803 41.0196C14.1803 40.8132 14.0986 40.6152 13.9531 40.4688L11.7422 38.2578C11.1469 37.6668 10.3768 37.2837 9.54628 37.1655C8.71581 37.0472 7.86936 37.2002 7.13279 37.6016C4.51373 33.9226 3.11224 29.516 3.12498 25C3.13139 19.2004 5.43813 13.6401 9.5391 9.53913C13.6401 5.43816 19.2003 3.13142 25 3.12501C27.846 3.11907 30.6653 3.67391 33.2969 4.75782L33.8906 3.3047C31.069 2.14992 28.0488 1.55808 25 1.56251ZM7.32029 39.3594C7.76306 38.9238 8.35931 38.6797 8.98044 38.6797C9.60158 38.6797 10.1978 38.9238 10.6406 39.3594L12.2969 41.0235L8.97654 44.336L7.32029 42.6797C6.88128 42.2387 6.63482 41.6418 6.63482 41.0196C6.63482 40.3973 6.88128 39.8004 7.32029 39.3594Z" fill="black"/>
</svg>
