<svg width="50" height="50" viewBox="0 0 50 50" fill="none" xmlns="http://www.w3.org/2000/svg">
<g clip-path="url(#clip0_545_23)">
<path d="M42.5 0.104172H7.5C3.35978 0.108648 0.00447592 3.46395 0 7.60417V34.2708C0.00447592 38.411 3.35978 41.7663 7.5 41.7708H9.60246L6.72567 48.9616C6.59993 49.2802 6.68172 49.6427 6.93156 49.8767C7.1814 50.1107 7.54923 50.1676 7.85848 50.0207L25.1917 41.7708H42.5C46.6402 41.7663 49.9955 38.411 50 34.2708V7.60417C49.9955 3.46395 46.6402 0.108648 42.5 0.104172ZM48.3333 34.2708C48.3297 37.491 45.7202 40.1005 42.5 40.1041H25C24.8759 40.105 24.7534 40.1334 24.6415 40.1876L9.06494 47.6041L11.6077 41.2484C11.7106 40.9912 11.6797 40.6999 11.5247 40.4704C11.3692 40.2413 11.1104 40.1037 10.8333 40.1041H7.5C4.27979 40.1005 1.67033 37.491 1.66667 34.2708V7.60417C1.67033 4.38395 4.27979 1.7745 7.5 1.77084H42.5C45.7202 1.7745 48.3297 4.38395 48.3333 7.60417V34.2708Z" fill="black"/>
<path d="M37.8235 15.1042H30.4492C30.0883 15.1042 29.7685 14.8722 29.6566 14.5292L27.3784 7.51506C27.0443 6.48397 26.084 5.78532 25 5.78532C23.916 5.78532 22.9558 6.48397 22.6217 7.51506L20.3434 14.5292C20.2315 14.8722 19.9117 15.1042 19.5508 15.1042H12.1765C11.0934 15.1038 10.1335 15.8012 9.79861 16.8315C9.46373 17.8613 9.83034 18.9901 10.7068 19.6265L16.6724 23.96C16.9654 24.172 17.0878 24.5488 16.9759 24.8926L14.6969 31.9059C14.362 32.9362 14.7286 34.0645 15.6051 34.7013C16.4811 35.3377 17.6681 35.3377 18.5441 34.7009L24.5101 30.3674C24.8023 30.155 25.1978 30.155 25.4899 30.3674L31.4559 34.7009C32.3283 35.3495 33.5226 35.3495 34.395 34.7009C35.2812 34.0715 35.6502 32.9358 35.3032 31.9059L33.0241 24.8918C32.9126 24.5483 33.0351 24.172 33.3277 23.96L39.2932 19.6265C40.1697 18.9901 40.5363 17.8613 40.2014 16.8315C39.8666 15.8012 38.9067 15.1038 37.8235 15.1042ZM38.3134 18.2792L32.3474 22.6123C31.4697 23.2475 31.1023 24.377 31.4392 25.4065L33.7175 32.4198C33.8302 32.7637 33.7089 33.1405 33.4168 33.3537C33.1246 33.5665 32.7283 33.5669 32.4357 33.3541L26.4702 29.021C25.5941 28.3818 24.4059 28.3818 23.5299 29.021L17.5643 33.3541C17.2722 33.5661 16.8766 33.5657 16.5845 33.3533C16.2927 33.1409 16.1707 32.7649 16.2826 32.4215L18.5608 25.4093C18.8977 24.3791 18.5307 23.2495 17.6526 22.6143L11.6866 18.2808C11.3924 18.0693 11.2683 17.6917 11.3802 17.347C11.4921 17.0024 11.8144 16.7692 12.1765 16.7708H19.5508C20.6348 16.7733 21.5959 16.0746 21.9283 15.0431L24.2074 8.0302C24.3201 7.68799 24.6391 7.45687 24.9992 7.45687C25.3593 7.45687 25.6783 7.68799 25.791 8.0302L28.0701 15.0444C28.4033 16.0759 29.3648 16.7741 30.4492 16.7708H37.8235C38.1848 16.7704 38.5055 17.0028 38.6174 17.3466C38.7289 17.6904 38.6064 18.0672 38.3134 18.2792Z" fill="black"/>
</g>
<defs>
<clipPath id="clip0_545_23">
<rect width="50" height="50" fill="white"/>
</clipPath>
</defs>
</svg>
